/* XPM */
static char *_37ff71c95ef42d3f4e2b3d6fff47175vIGmSclTpYeq4pbz[] = {
/* columns rows colors chars-per-pixel */
"64 64 184 2 ",
"   c None",
".  c #010101",
"X  c #0C0303",
"o  c #0A0709",
"O  c #0B0B0B",
"+  c #070807",
"@  c #130202",
"#  c #1C0202",
"$  c #110B0B",
"%  c #0F110F",
"&  c #110F10",
"*  c #131314",
"=  c #1C1717",
"-  c #17171A",
";  c #1B1B1B",
":  c #220302",
">  c #2B0403",
",  c #270B09",
"<  c #320405",
"1  c #3B0202",
"2  c #381213",
"3  c #241F21",
"4  c #1F2020",
"5  c #222222",
"6  c #2B2B2B",
"7  c #313131",
"8  c #3A3A3A",
"9  c #410202",
"0  c #6C0505",
"q  c #660606",
"w  c #7D0505",
"e  c #434343",
"r  c #4D4D4D",
"t  c #5A5B5A",
"y  c #765759",
"u  c #6C6C6C",
"i  c #736F71",
"p  c #757374",
"a  c #7D7C7D",
"s  c #850504",
"d  c #8B0303",
"f  c #930407",
"g  c #9C0505",
"h  c #861011",
"j  c #AF0505",
"k  c #A5090B",
"l  c #B50405",
"z  c #BB0305",
"x  c #B20B0F",
"c  c #AC282B",
"v  c #C30405",
"b  c #CB0304",
"n  c #C1090A",
"m  c #D70304",
"M  c #DA0506",
"N  c #D60A0C",
"B  c #CB171B",
"V  c #E70406",
"C  c #F60202",
"Z  c #FC0001",
"A  c #FA0408",
"S  c #F50D0D",
"D  c #F80A0B",
"F  c #F4070B",
"G  c #EF100F",
"H  c #F2120F",
"J  c #F50E11",
"K  c #EE1E1E",
"L  c #F41414",
"P  c #F81313",
"I  c #F51917",
"U  c #F5171B",
"Y  c #F41C1C",
"T  c #EC1C22",
"R  c #E31F20",
"E  c #F41E22",
"W  c #ED2D2D",
"Q  c #E82727",
"!  c #F42324",
"~  c #F22B2B",
"^  c #F52928",
"/  c #F22D31",
"(  c #ED3233",
")  c #EF3B3E",
"_  c #F43234",
"`  c #F3373A",
"'  c #F23939",
"]  c #F03A37",
"[  c #F2403E",
"{  c #C83C40",
"}  c #807D7F",
"|  c #A56F6F",
" . c #B0696E",
".. c #DF4547",
"X. c #EF4748",
"o. c #F24A47",
"O. c #F44549",
"+. c #F34A4B",
"@. c #E3504F",
"#. c #F0504F",
"$. c #EF4F50",
"%. c #EB5758",
"&. c #F05E5B",
"*. c #EF615E",
"=. c #F0615E",
"-. c #C67475",
";. c #ED6261",
":. c #F46261",
">. c #F66F75",
",. c #E97373",
"<. c #F4787A",
"1. c #868687",
"2. c gray55",
"3. c #959696",
"4. c #9D9D9D",
"5. c #AC9B9B",
"6. c #A2A2A2",
"7. c #ACACAC",
"8. c #B5B5B5",
"9. c #BBBBBB",
"0. c #BBB5B7",
"q. c #F38589",
"w. c #F2888A",
"e. c #F18787",
"r. c #ED9D99",
"t. c #F49B9E",
"y. c #F49997",
"u. c #CBA09F",
"i. c #F09DA1",
"p. c #C8A7A8",
"a. c #CCBBBA",
"s. c #EFA8A6",
"d. c #F4AEAB",
"f. c #F7A9AC",
"g. c #F7B4AF",
"h. c #FAAFB1",
"j. c #EDB7B1",
"k. c #F6B3B3",
"l. c #FAB2B1",
"z. c #F3BEBC",
"x. c #F8BAB8",
"c. c #F3C1BB",
"v. c #C3C3C3",
"b. c #CCCDCC",
"n. c #D4CECE",
"m. c #D2D2D2",
"M. c #DADADA",
"N. c #F6C6C5",
"B. c #F9C6C6",
"V. c #F5CAC7",
"C. c #FACAC6",
"Z. c #F9C7C8",
"A. c #F5CCCB",
"S. c #F9CBCB",
"D. c #F5D1CF",
"F. c #F4D4D2",
"G. c #F5DAD6",
"H. c #FADDD6",
"J. c #F6DCDC",
"K. c #FADDDC",
"L. c #F7E0DE",
"P. c #E0DFE1",
"I. c #E4E4E4",
"U. c #ECECEC",
"Y. c #F7E6E4",
"T. c #F9E5E4",
"R. c #FCECE7",
"E. c #FAEBEA",
"W. c #FBEBE9",
"Q. c #F7ECEC",
"!. c #F2F2F2",
"~. c #FBF6F5",
"^. c #FBF9F6",
"/. c #FBF6F8",
"(. c #F6FEFE",
"). c #FAFDFA",
"_. c #FBFFFE",
"`. c #FDFEFE",
"'. c #FEFEFE",
"]. c white",
"[. c #FEFFFF",
"{. c #FEFEFD",
"}. c #FEFFFE",
"|. c #F7F9F6",
/* pixels */
"                                          + . + . . + . . + . . + . . + . . + . . + .                                           ",
"                                        + . . . . . . . . . . . . . . . . . . . . . . +                                         ",
"                                        + . . . . . . . . . . . . . . . . . . . . . . +                                         ",
"                                        + . . . - ; ; = > > > > > > > , ; ; ; * . . . O                                         ",
"                        O + + + + + + O . . . 4 7.b.b.p.B b m b m b b { a.b.b.} . . . + * + O + + O +                           ",
"                        + . . . . . . . . . . 5 m.{.{.C.I Z Z Z Z Z Z o.W.{.{.4.+ . . . . . . . . . .                           ",
"                        + . . . . . . . . . . 5 m.{.{.B.P Z Z Z Z Z Z O.W.{.{.4.+ . . . . . . . . . .                           ",
"                        + . . . O O & O O O O 7 m.{._.Z.I Z Z Z Z Z Z O.E.{.{.6.; - * ; * - - O . . .                           ",
"                  O O * + . . + 1.9.9.9.9.9.9.v.!._._.Z.U Z Z Z Z Z Z O.Q.{._.U.b.b.b.b.b.b.b.t . . . + + . O                   ",
"                + . . . . . . & 0.{.{.{.{.{.{.{.)._._.Z.U Z Z Z Z Z Z O.R.).{.^.{.{.{.{.{.{.{.p . . . . . X .                   ",
"                + . . . . . . O 8.{.{.{.{.{.{.{.{.{.{.B.I Z Z Z Z Z Z o.W._.{._.{.{.{.{.{.{.).i . . . . . . .                   ",
"                $ . . X < < > 2 0.{.{.{.{.{.{.^.G.D.F.f.P Z Z Z Z Z Z [ V.J.J.L.{.{.{.{.{.{.^.p @ X @ X . . . ;                 ",
"          + + * + . . : x N N B j.{.{.{.{.{.{.G...R Q T Z Z Z Z Z Z Z S W ( W @.E.{.{.{.{.{.{.-.k g k q . . . X o + +           ",
"        ; . . . . . . > m Z Z L k.{.{.{.{.{.{.G.W Z Z C Z Z Z Z Z Z Z Z Z Z Z ~ T.{.{.{.{.{.{.>.C Z Z g X . . . . . . *         ",
"        5 . . . . . . : m Z Z J l.{.{.{.{.{.{.G.W C Z Z Z Z Z Z Z Z Z Z Z Z Z _ T.{.{.{.{.{._.>.Z Z Z g X . . . . . . *         ",
"        ; . . . % - - 2 m Z Z G y.L.K.K.K.K.L.x.! Z Z Z Z Z Z Z Z Z Z Z Z Z Z ^ Z.K.K.K.K.K.H.:.C Z Z k 5 ; 4 & . . . *         ",
"        5 . . O 3.b.v.p.K Z Z Z ! W W ^ ^ ~ ~ ! D Z Z Z Z Z Z Z Z Z Z Z Z Z Z D ^ ~ ~ / ^ W W L Z Z Z @.m.m.m.u . . . *         ",
"        3 . . & v.{.{.J.^ Z Z Z Z Z Z Z Z Z Z Z Z Z Z Z Z Z Z Z Z Z C Z Z Z Z Z Z Z Z Z Z Z C Z Z Z Z :.^.{.{.} . . . *         ",
"        5 . . O v.{.{.G.! Z Z Z Z C Z Z Z Z Z Z Z Z Z Z Z Z Z Z Z Z C Z C Z Z Z Z Z Z Z Z Z Z Z Z Z C &./.{.{.} . . . *         ",
"        ; . . * v._._.J.X.^ ^ ^ D Z Z Z Z Z Z D Y E Y E Y Y Y E Y Y Y Y Y Y ! I Z Z Z Z Z Z Z S E E Y ,./._.{.} . . . ;         ",
"  + + + + . . % v.{.{.^.L.J.K.V._ Z Z Z Z Z Z ~ k.A.A.V.A.A.A.S.S.S.A.V.A.V.S.<.A Z Z Z Z Z C $.N.Z.V.G.(.^.{.a . . . + + + .   ",
"* . . . . . . O v.{.).{.{.{.{.Y.' Z Z Z Z Z Z ` T._._.{._.{.{.{.{.{._.{._.{._.t.D Z Z Z Z Z Z ;.!._.{.{._._.{.a . . . . . . . * ",
"* . . . . . . O v.{.{.).{._.{.E.' Z Z Z Z Z Z _ L.{.{.{.{.{.{.{.{.{.{.{.{.{.{.y.C Z Z Z Z Z Z ;./.{._._.{._.).a . . . . . . . * ",
"* . . . ; 7 7 8 b.).{.{.{._.{.Y.] C Z Z P L P X.L.{.).{.{.{.{.{.{.{.{.{.{.{.{.s.Q E E P Z Z C *.~._.{.).{._.{.2.; 5 5 O . . . O ",
"* . . + 2.I.M.I.!.{.{.{.{.{.{.Y.' Z Z L y.N.z.A./.{.{.{.{.{.{.{.{.{.{.{.{.{.{.E.D.D.D.>.C Z Z *.~.{.{.{.{.{.{.I.b.m.b.t . . . * ",
"; . . + 6.{.{.{.{.{.{.{.{.{.{.Y.' Z Z Y Z._.(._._._.{.{.{.{.{.{.{.{.{.{.{.{.{.{._._.{.w.C Z Z ;.~.{.{.{.{.{.{.{.{.{.{.u . . . O ",
"* . . + 4.{.{.{.{.{.{.{.{.{._.Y.] Z Z Y Z._.{.{.{.{.{.{.{.{.{.{.{.{.{.{.{.{.{.{.{.{.{.q.Z Z Z ;.~.{.{.{.{.{.{.{.{.{.{.u . . . * ",
"* . . + 4.{.{.{.{.{.{.{.{.{._.Y.' Z Z I N._.{.{.{.{.{.{.{.{.{.{.{.{.{.{.{.{.{.{.{.{.{.e.C Z Z ;.~.{.{.{.{.{.{.{.{.{.{.u . . . * ",
"* + . + 4.{.{.{.{.{.{.{.{.{._.Y.] Z Z Y N.{.{.{.{.{.{.{.{.{.{.{.{.{.{.{.{.{.{.{.{.{.{.w.C Z Z ;.~.{.{.{.{.{.{.{.{.{.{.u . . . * ",
"* . . + 4.{.{.{.{.{.{.{.{.{._.Y.' Z C K B.{.{.{.{.{.{.{.{.{.{.{.{.{.{.{.{.{.{.{.{.{.{.q.C Z Z ;.~.{.{.{.{.{.{.{.{.{./.u . . . O ",
"* + . + 4.{.{.{.{._.{.(.(._.{.Y.' Z Z I N.{.{.{.{.{.{.{.{.{.{.{.{.{.{.{.{.{.{.{.{.{.{.q.C Z Z ;./._._._._._.{.{.{.{.).u . . . * ",
"* . . + 4.{.{.{.{.{.{./.V.z.c.g.~ Z Z I B.{.{.{.{.{.{.{.{.{.{.{.{.{.{.{.{.{.{.{.{.{.{.q.C C Z $.V.A.A.J.{._.{.{.{.{.).u . . . * ",
"* . . + 4.{.{.{.{.{.{.T.) L L L C Z C U Z.{.{.{.{.{.{.{.{.{.{.{.{.{.{.{.{.{.{.{.{.{.{.q.C Z Z J ! T T ,./.{._._.{.{.{.u . . . * ",
"* . . + 4.{.{.{._.{.{.Y.^ Z Z Z Z Z Z Y V.{.{.{.{.{.{.{.{.{.{.{.{.{.{.{.{.{.{.{.{.{.{.q.C Z Z Z Z Z Z =.^.).{.{.{.{.).u . . . O ",
"* + . o 6.{.{.{._.{.{.T./ Z Z Z Z Z Z Y Z.{.{.{.{.{.{.{.{.{.{.{.{.{.{.{.{.{.{.{.{.{.{.q.C Z Z Z C Z Z *._._.{.{.{.{.{.u . . . * ",
"* . . $ | k.h.k.k.h.l.t.! Z Z Z Z Z Z U d.K.J.T.^.{.{.{.{.{.{.{.{.{.{.{.{.{.{.L.l.l.g.=.A Z Z Z Z Z Z #.Z.D.S.A.S.S.A.y . . . * ",
"* + . @ x L S S S S S S A Z Z Z Z Z Z F ^ / / %.Y.{.{.{.{.{.{.{.{.{.{.{.{.).{.i.L S S D Z Z Z Z Z Z Z J ! ! ! ! ! ! ! h . . . * ",
"* . . X l Z C Z Z Z Z Z Z Z Z Z Z Z Z C Z Z Z _ T.{.{.{.{.{.{.{.{.{.{.{._.{.{.r.F Z Z C Z Z Z Z Z Z Z Z Z Z Z Z C Z Z d X . . % ",
"* . . @ j C A Z Z Z C Z Z Z Z Z Z Z Z Z Z Z Z ` T.{.{.{.{.{.{.{.{.{.{.{.{.{.{.t.D Z Z Z Z Z Z Z Z Z Z Z Z A Z C Z Z Z d . . . * ",
"* . . @ l Z Z Z Z Z Z C v l l l l l l l l z z c 5.7.7.7.7.7.7.7.7.7.7.7.7.7.7. .n v v v v v v v v v v M Z Z Z Z C Z Z d + . . O ",
"* + . @ z Z Z A Z Z A V 9 X X X @ @ X X X X X X + + + + + + + + + + + + + + + X @ # # # # # # # # # # s Z A Z Z Z Z Z d . . . * ",
"* . . @ z Z A Z Z Z Z V 9 . . . . . . . . . . . . . . . . . . . . . . . . . . . . . . . . . . . . . . s Z Z Z Z Z A A f X . . % ",
"* + . # v Z Z Z Z Z A V 1 . . . . . . . . . . . . . . . . . . . . . . . . . . . . . . . . . . . . . . w A Z Z Z Z Z Z d . . . * ",
"* . . @ f b b b v b b z < . . . ; 7 7 7 6 7 6 6 + . . + 7 e e e e e e 6 . . . * 8 e e e e e e 7 . . . q b b b b b b b 0 + . . % ",
"* . . . # # # : # # : : X . . . 3.I.I.I.I.I.I.v.5 . . * v.!.U.U.U.U.!.4.+ . . r I.!.U.U.U.U.!.6.+ . . @ : # : # # # # @ . . . & ",
"- . . . . . . . . . . . . . . + 6.{.{.{.{.{.{.M.6 . . ; b.{.{.{.{.{.{.6.+ . . r !.{.{.{.{.{.{.7.+ . . . . . . . . . . . . + . * ",
"* . . . . . . . . . . . . . . + 6.{.{.{.{.{.{.M.5 . . ; m.{.{.{.{.{.{.6.o . . r !.{.{.{.{.{.{.7.+ . . . . . . . . . . . . . . * ",
"  * * * O . . . . . . + 6 7 7 7 8.{.{.{.{.{.{.M.6 . . ; b.{.{.{.{.{.{.6.+ . . r !.{.{.{.{.{.{.v.r e e 6 . . . . . . . % * % *   ",
"        5 . . . . . . * 9.U.I.I.!.{.{.{.{.{.{.M.6 . . - b.{.{.{.{.{.{.6.+ . . r !.{.{.{.{.{.{.).U.U.!.3.. . . . . . .           ",
"        ; . . . . . . ; m.{.{.{.{.{.{.{.{.{.{.M.6 . . = m.{.{.{.{.{.{.6.+ . . r !.{.{.{.{.{.{.{.{.{.{.6.+ . . . . . .           ",
"        * . . . . . . * m.{.{.{.{.{.{.{.{.{.{.M.5 . . * b.{.{.{.{.{.{.6.+ . . r !.{.{.{.{.{.{.{.{.{.{.6.. . . . . . +           ",
"          + + & + . . ; m.{.{.{.{.{.{.{.{.{.{.I.t 8 8 r M.{.{.{.{.{.{.8.e 8 8 p !.{.{.{.{.{.{.{.{.{.{.6.+ . . * O +             ",
"                * . . ; m.{.{.{.{.{.{.{.{.{.{.{.U.U.U.U._.{.{.{.{.{.{.).U.U.U.!.{.{.{.{.{.{.{.{.{.{.{.6.. . . ;                 ",
"                + . . ; m.{.{.{.{.{.{.{.{.{.{.{.{.{.{.{.{.{.{.{.{.{.{.{.{.{.{.{.{.{.{.{.{.{.{.{.{.{.{.6.+ . . *                 ",
"                O . . ; m.{.{.{.{.{.{.{.{.{.{.{.{.{.{.{.{.{.{.{.{.{.{.{.{.{.{.{.{.{.{.{.{.{.{.{.{.{.{.6.. . . *                 ",
"                O . . * 7.b.b.b.U.{.{.{.{.{.{.{.{.{.{.{.{.{.{.{.{.{.{.{.{.{.{.{.{.{.{.{.{.{.{.P.9.9.v.a + . . *                 ",
"                O . . . * ; ; 5 9.{.{.{.{.{.{.{.{.{.{.{.{.{.{.{.{.{.{.{.{.{.{.{.{.{.{.{.{.{.{.2.* * * O . . . *                 ",
"                + . . . . . . + 8.{.{.{.{.{.{.{.{.{.{.{.{.{.{.{.{.{.{.{.{.{.{.{.{.{.{.{.{.{.{.1.. . . . . . . ;                 ",
"                O . . . . . . O 8.{.{.{.{.{.{.{.{.{.{.{.{.{.{.{.{.{.{.{.{.{.{.{.{.{.{.{.{.{.{.2.. . . . . . . *                 ",
"                  + . + + . . + 4.m.m.m.m.m.m.m.m.m.m.m.m.m.m.m.m.m.m.m.m.m.m.m.m.m.m.m.m.m.m.p . . . + +                       ",
"                        * . . . * ; ; ; ; ; ; ; ; ; ; ; ; ; ; ; ; ; ; ; ; ; ; ; ; ; ; ; ; ; ; O . . . O                         ",
"                          . . . . . . . . . . . . . . . . . . . . . . . . . . . . . . . . . . . . . . +                         ",
"                          . . . . . . . . . . . . . . . . . . . . . . . . . . . . . . . . . . . . . . +                         ",
"                          . + + . + + . + + . + + . + + . + + . + + . + + . + + . + + . + + . + + o +                           "
};
