/* XPM */
static char *b6f1b78894d74dd184df84bca50b7803CWHt4tVchZ22J8hn[] = {
/* columns rows colors chars-per-pixel */
"64 64 2 1 ",
"  c None",
". c #269463",
/* pixels */
"................................................................",
"................................................................",
"................................................................",
"................................................................",
"................................................................",
"...............                                  ...............",
"...............                                  ...............",
"...............          ..                      ...............",
"...............        ......                    ...............",
"...............       ........                   ...............",
"...............       ........                   ...............",
"...............       .........                  ...............",
"...............       ........                   ...............",
"...............       ........                   ...............",
"...............       ........                   ...............",
"...............        ......                    ...............",
"...............                                  ...............",
"...............           ................       ...............",
"...............          ...................     ...............",
"...............         ....................     ...............",
"...............        ......................    ...............",
"...............       .......................    ...............",
"...............      ...............     .....   ...............",
"...............      ................     ....   ...............",
"...............     .................     .....  ...............",
".........................  ..........      ....  ...............",
"........................   ...........     ....  ...............",
"........................   ...........      ...  ...............",
".......................     ...........          ...............",
"......................      ...........          ...............",
"...............              ..........          ...............",
"...............              ...........         ...............",
"...............              ...........         ...............",
"...............              ...........         ...............",
"...............              ...........         ...............",
"...............             ............         ...............",
"...............             ...... .....         ...............",
"...............            ......  .....         ...............",
"...............            ......  .....         ...............",
"...............           .......  .....         ...............",
"...............           ......   .....         ...............",
"...............          .......   .....          ..............",
"...............          ......    ......            ...........",
"...............         .......     ................  ..........",
"...............         ......      ................. ..........",
"...............        .......      .................. .........",
"...............        ......       .................. .........",
"...............       .......         ................  ........",
"...............       ......                            ........",
"...............      .......                     ...............",
"...............      ......                      ...............",
"...............     .......                      ...............",
"...............     ......                       ...............",
"...............    .......                       ...............",
"...............    ......                        ...............",
"...............                                  ...............",
"...............                                  ...............",
"................    .......                       ..............",
".................    .......                       .............",
"..................    .......                       ............",
"...................    .......                       ...........",
"....................    .......                       ..........",
".....................    .......                       .........",
"......................    .......                       ........"
};
