/* XPM */
static char *player[] = {
/* columns rows colors chars-per-pixel */
"64 63 183 2 ",
"   c None",
".  c #0E0D16",
"X  c #1C1914",
"o  c #4D3C0F",
"O  c #44340E",
"+  c #523E0E",
"@  c #423410",
"#  c #452129",
"$  c #522028",
"%  c #533223",
"&  c #55420C",
"*  c #755A0B",
"=  c #714D24",
"-  c #BE1F28",
";  c #84373C",
":  c #A5332F",
">  c #D3060F",
",  c #D60A14",
"<  c #D80A14",
"1  c #D50F18",
"2  c #D90E18",
"3  c #D7121B",
"4  c #DA131D",
"5  c #DA191F",
"6  c #DD2513",
"7  c #DA1B24",
"8  c #D41B26",
"9  c #DC242C",
"0  c #D62028",
"q  c #DC2C34",
"w  c #DE2F38",
"e  c #DC2730",
"r  c #DD333B",
"t  c #D73239",
"y  c #E0363E",
"u  c #916E07",
"i  c #A47B07",
"p  c #AE7E1F",
"a  c #A8761A",
"s  c #865C2D",
"d  c #895E2E",
"f  c #8D622D",
"g  c #976A26",
"h  c #9A6D27",
"j  c #92662A",
"k  c #956929",
"l  c #986C29",
"z  c #9D7028",
"x  c #8E6231",
"c  c #A37524",
"v  c #AB7C21",
"b  c #903B42",
"n  c #DF3C43",
"m  c #E13A42",
"M  c #856540",
"N  c #CF5058",
"B  c #D2525A",
"V  c #E2444B",
"C  c #E1444B",
"Z  c #E54E55",
"A  c #E65057",
"S  c #E5555B",
"D  c #E5585E",
"F  c #E8575E",
"G  c #E9665C",
"H  c #E75C63",
"J  c #E85C63",
"K  c #E9656C",
"L  c #E76268",
"P  c #E96D73",
"I  c #E66D70",
"U  c #EC797E",
"Y  c #E87579",
"T  c #BE9205",
"R  c #B3831C",
"E  c #BC8B1A",
"W  c #B88619",
"Q  c #B08306",
"!  c #C98D00",
"~  c #CC9000",
"^  c #CF9F00",
"/  c #D29501",
"(  c #D59F02",
")  c #D89D00",
"_  c #D19E0F",
"`  c #C59214",
"'  c #CF9B12",
"]  c #CF9312",
"[  c #D39F11",
"{  c #F18D1B",
"}  c #DCA301",
"|  c #D6A10E",
" . c #DBA50E",
".. c #DEA80C",
"X. c #D6A603",
"o. c #E1A600",
"O. c #E4AA00",
"+. c #E9AE00",
"@. c #E3AD0A",
"#. c #FBAF00",
"$. c #E6B202",
"%. c #EDB402",
"&. c #E8B209",
"*. c #F1B601",
"=. c #FBB300",
"-. c #F4BB02",
";. c #FBBE00",
":. c #F2BA08",
">. c #EFB014",
",. c #ECBC2B",
"<. c #E5B72B",
"1. c #FCC200",
"2. c #FCC40C",
"3. c #F7C108",
"4. c #FCC614",
"5. c #FCC816",
"6. c #F6C21B",
"7. c #FCCB21",
"8. c #FCCC2D",
"9. c #F7C82F",
"0. c #FDD13D",
"q. c #FDD034",
"w. c #F7CC3A",
"e. c #CFAA4C",
"r. c #EFC440",
"t. c #F0C543",
"y. c #FDD346",
"u. c #FDD651",
"i. c #FDD95B",
"p. c #FAD55A",
"a. c #FDDB64",
"s. c #FEDD6B",
"d. c #F8D665",
"f. c #FDDE7A",
"g. c #FCDE74",
"h. c #FEE27D",
"j. c #FEE075",
"k. c #ED7D82",
"l. c #EC8186",
"z. c #ED858A",
"x. c #EE898D",
"c. c #EE8D92",
"v. c #F08F94",
"b. c #EE9195",
"n. c #EE9C9F",
"m. c #F09095",
"M. c #F1999D",
"N. c #F09398",
"B. c #F19DA1",
"V. c #EFA7A8",
"C. c #F2A5A9",
"Z. c #F1A9AC",
"A. c #F1A1A5",
"S. c #F3ADB0",
"D. c #F2B3B5",
"F. c #F3B7B9",
"G. c #F3BABB",
"H. c #FEE381",
"J. c #FDE28D",
"K. c #CDC0B4",
"L. c #FEE8A5",
"P. c #FEEEBC",
"I. c #FEECB2",
"U. c #F5C2C4",
"Y. c #F6CACC",
"T. c #F8CACC",
"R. c #E2D9CD",
"E. c #F8CDD0",
"W. c #E2DAD1",
"Q. c #F8D3D4",
"!. c #F9DBDC",
"~. c #F8D5D6",
"^. c #FFF0C3",
"/. c #FEF5D9",
"(. c #EDE9E3",
"). c #FBE4E5",
"_. c #FCEBEC",
"`. c #FCE6E8",
"'. c #FDF3F4",
"]. c #FFFCF2",
"[. c #FFFFFF",
"{. c #FDFCFC",
"}. c #FFFCFC",
/* pixels */
"                                                                                                                                ",
"                                                                                                                                ",
"                                                                                                                                ",
"                                                                                                                                ",
"                                                                                                                                ",
"                                                                                                                                ",
"                                                        1.1.1.                                                                  ",
"                                                      1.1.1.1.                                                                  ",
"                                                    ;.1.1.1.1.1.&. .W d c       1.1.1.1.                                        ",
"                                                      1.1.1.1.1.[ g s g p %.1.1.1.1.1.1.1.                                      ",
"                                                    1.1.1.1.1.*.[ f c &.%.*.1.1.1.1.1.1.1.                                      ",
"                                                  1.1.1.1.1.1...g g v @.1.1.1.1.1.1.;.1.;.                                      ",
"                                                1.1.%.+.+.*.1.*.R ..*.*.1.1.1.1.1.1.1.1.                                        ",
"                                                1.%.~ ! ! ~ O.1.%.1.1.*.*.*.1.1.1.1.1.;.                                        ",
"                                              1.1.*.o.} ) ) +.1.1.1.*./ ~ / } *.1.1.1.1.                                        ",
"                                              1.1.1.1.1.1.1.1.1.1.1.*.} / ~ ! ) ;.1.1.1.1.                                      ",
"                                              ;.1.1.1.1.1.1.1.1.1.1.1.1.*.*.+.*.1.1.1.1.1.                                      ",
"                                              ;.1.1.1.$.X.*.1.1.1.1.1.1.1.1.1.1.1.1.1.1.1.                                      ",
"                                            =.;.;.;.) o @ * *.1.1.1.1.$.*.1.1.1.1.1.1.1.1.1.                                    ",
"                                            =.=.=.;.i u X.o X.1.1.*.* O * %.1.1.1.1.1.1.1.1.                                    ",
"                                          =.#.=.=.;.*.3.2.X.*.1.1.^ & T + Q ;.;.;.1.1.1.*.@.                                    ",
"                                          ;.=.=.;.;.0.I.^.e.i Q <.w.>.1.! ) ;.=.=.*.[ R h f x                                   ",
"                                          ;.;.;.;.2.P.{.{.K.= M R.].P.8.;.;.=.=.#.] c h z z l                                   ",
"                            +.*.          ;.1.1.1.5./.{.{.{.W.(.{.{.{.L.1.;.=.#.=.=.*.*.*.*.                                    ",
"                          *.} +.1.        ;.1.1.1.1.J.{.{.{.{.{.{.{.{.P.2.1.;.=.;.;.1.1.1.1.                                    ",
"                  # . X X.1.*.o.1.1.1.1.  1.1.1.1.1.5.f.L.H.f./.{.{.].a.1.1.;.1.*.| ` E R p                                     ",
"              7 F N -   ;.1.%.) 1.1.1.1.*.%.1.1.1.1.1.1.1.1.1.8.s.f.y.1.1.1.1.1.@.a j d s                                       ",
"            , r K F 3 w G { / * $.1.1.1.1.%.*.1.1.1.1.1.1.1.1.1.1.1.1.1.1.1.1.1.1.*.%.@. .                                      ",
"            7 Z m.Y.r Z K 7 5 ; a *.E ..1.*.O.%.1.1.1.1.1.1.1.1.1.1.1.1.1.1.1.;.1.1.1.1.1.          %.                          ",
"          , n M.M.Y C x.Q.z.V H t   f  .1.1.%.O.%.*.1.1.1.1.1.1.1.1.1.1.1.;.1.1.;.;.1.;.*.*.1.1.1.%.} %.                        ",
"          3 F T.'.G.L x.D.!.N.F 7       *.R | %.O.O.+.*.;.1.1.1.1.1.1.1.1.1.1.1.;.*.%.O.%.1.1.1.*.} *.1.i                       ",
"        , r C.~.{.).C.!.D.b.K V 2         d | 1.%.O.o.o.O.+.%.*.*.*.*.*.*.*.%.%.O.o.O.*.1.1.*.1.*.} ;.1.    $ b 0               ",
"        3 K !.{.{.Z.C.Q.Z.!.K r 2             1.1.*.%.O.@.,.r.t.,.@.O.O.O.o.o.o.O.%.%.*.1.*.v &.T u *.>.  2 9 J m 2             ",
"      , e J c._.Y.).F.V.G.Z.F 7               1.1.1.1.6.p.h.H.h.h.d.,.O.O.O.%.*.1.;.R p ;.%.    % : 6 V J m K U F 7             ",
"      1 V J A.D.P _.F.Y.Z.k.V 2               _ *.1.5.a.h.h.h.h.h.H.g.9.;.1.1.1.1.*.          8 B Z 3 w U !.).c.J y 2           ",
"      9 J F r r k.!.G.D.Y.B.9 2               s ` 1.u.h.h.h.h.h.h.h.h.s.5.1.1.1.              4 A k.S.F J B.n.Z.c.Z 4           ",
"            3 V K l.V.F.).P 3                  .%.7.j.h.h.h.h.h.h.h.h.h.y.1.@.E               2 V k.C.D H S.G.D.E.J w ,         ",
"                J 7 3 P z.r ,                 1.1.y.h.h.h.h.h.h.h.h.h.H.a.1.' j                 w Y Y.).Q.D.Q.G.n.z.V ,         ",
"                    4 Z Z 3 ,                 E *.i.h.h.h.h.h.h.h.h.h.h.s.2.1.%.        d s     7 U E.'._.m.C.F.G.!.x.7 ,       ",
"                          ,                   c :.i.h.h.h.h.h.h.h.h.h.h.s.2.1.1.      *.` j     2 V C.{.{._.).G.U.Y.U.w ,       ",
"                                            %.*.1.u.h.h.h.h.h.h.h.h.h.h.i.1.@.E     l E %.      2 r Q.)._.x.!.U.Y.F.b.V 1       ",
"                              1.1.        1.1.1.1.0.h.h.h.h.h.h.h.h.h.H.0.1.' j z *.[ g           7 P k.).I l.Z.F 9 V F 7       ",
"                            ;.1.1.1.1.1.1.1.1.1.1.5.s.H.h.h.h.h.h.h.H.s.5.1.1.@.g E 1.            , V L Y w Z J 7 >             ",
"                            1.1.1.1.1.1.1.1.1.1.1.1.7.a.h.h.H.H.H.h.a.7.1.1.1.1.` g               , w J Z 3 m                   ",
"                            1.1.1.1.1.1.1.1.1.1.1.1.1.2.q.u.i.i.u.8.2.1.1.1.1.1.1.*.1.1.1.1.      , 7 F                         ",
"                            1.1.1.1.1.1.1.1.1.1.1.1.1.1.1.1.1.1.1.1.1.1.1.1.1.1.1.1.1.1.1.1.1.                                  ",
"                              1.1.1.1.1.1.1.1.1.1.1.1.1.1.1.1.1.1.1.1.1.1.1.1.1.1.1.1.1.1.1.1.                                  ",
"                                                      1.1.1.1.1.1.1.1.1.1.1.1.1.1.1.1.1.1.1.1.                                  ",
"                                                                ;.1.1.1.1.1.1.1.1.1.1.1.1.1.1.                                  ",
"                                                                                          1.1.                                  ",
"                                                                                                                                ",
"                                                                                                                                ",
"                                                                                                                                ",
"                                                                                                                                ",
"                                                                                                                                ",
"                                                                                                                                ",
"                                                                                                                                ",
"                                                                                                                                ",
"                                                                                                                                ",
"                                                                                                                                ",
"                                                                                                                                ",
"                                                                                                                                ",
"                                                                                                                                "
};
