/* XPM */
static char *_6b1ef6797a0437c83b3ab7a51106bb141zc4BBHP99GyzM8[] = {
/* columns rows colors chars-per-pixel */
"64 64 56 1 ",
"  c #F93F14",
". c #9B7F10",
"X c #A57D16",
"o c #AD7A17",
"O c #A67E19",
"+ c #AD7A1A",
"@ c #EF4B1B",
"# c #F94015",
"$ c #F04817",
"% c #F7461C",
"& c #F8441A",
"* c #F14A1B",
"= c #E8501B",
"- c #F44E22",
"; c #ED5321",
": c #EA572B",
"> c #EB582C",
", c #F1532C",
"< c #ED5F3C",
"1 c #9D8215",
"2 c #9E8318",
"3 c #A48017",
"4 c #A4861E",
"5 c #AC811F",
"6 c #A3881F",
"7 c #A58720",
"8 c #AC8220",
"9 c #A18925",
"0 c #AB8A26",
"q c #AA8628",
"w c #A38B29",
"e c #A98E2F",
"r c #A98E30",
"t c #A79239",
"y c #FAAF6F",
"u c #F6B46E",
"i c #FAB06F",
"p c #F2B96E",
"a c #FCB774",
"s c #FABC75",
"d c #FFBF79",
"f c #F6C17F",
"g c #FFC17C",
"h c #FDC485",
"j c #FEC688",
"k c #FAC88F",
"l c #F8E6DF",
"z c #F3EDDE",
"x c #F2F0DF",
"c c #FAEEE5",
"v c #F7F3E5",
"b c #F7F6ED",
"n c #F9F5EE",
"m c #FCF4F1",
"M c #FDFAF4",
"N c #FFFFFF",
/* pixels */
"NNNNNNNNNNNNNNNNNNNm, &&- - %%%%%&%%%%&,cNNNNNNNNNNNNNNNNNNNNNNN",
"NNNNNNNNNNNNNNNNNNNc,&&- -&-%%%%%%%%%%&,mNNNNNNMNNNNNNNNNNNNNNNN",
"NNNNNNNNNNNNNNNNNNNm, -&&-&&%%%%%%%%%& ,mNNNNNNNNNNNNNNNNNNNNNNN",
"NNNNNNNNNNNNNNNNmnml,&&&&& -%%%%%%%%%-&,lmmmmcmmmcmmNNNNNNNNNNNN",
"NNNNNNNNNNNNNNNn<,,,%%%%&&%%%%&&%%%%%%%%:,,,,,,,,,,<mNNNNNNNNNNN",
"NNNNNNNNNNNNNNNn, & %%%%%%%%&-&-%%%%%%%%%#& &&&&&  ,cNNNNNNNNNNN",
"NNNNNNNNNNNNNMNm,&-%%&%%%%%%&&& %&&&%%&%&%%&&&&&&& ,mNNNNNNNNNNN",
"NNNNNNNNNNNNNNNm>$****@@****--------****----,,,,>,,<mNNNNNNNNNNN",
"NNNNNNNNNNNNNNNb0XX3OO3OO3X5uasaaaay8XX5usasvmmnmnnmNNNNNNNNNNNN",
"NNNNNNNNNNNNNNNnw12222122214shggfghs7126shdjMNNNNNNNNNNNNNNNNNNN",
"NNNNNNNNNNNNNNNmw12122222216sgddddga4214sgdhMNNMNNNNNNNNNNNNNNNN",
"NNNNNNNNNNNNbbnzw44222226740sgdgddhs4227sddhnMMMMMMMNNNNNNNNNNNN",
"NNNNNNNNNNNmt9wepssp4214psssgdgggggs9114sggghhhhhhhkMNNNNNNNNNNN",
"NNNNNNNNNNNb91.4fggg4124sggggdgdgdgs9114sgggdgdddddgMNNNNNNNNNNN",
"NNNNNNNNNNNnw117sggs9114sggggggdgggs4116shggggggdddhMNNNNNNNNNNN",
"NNNNNNNNNNNnw116sggs4114pssfgdggdggs0447psssgdgdgddhnMMMNNNNNNNN",
"NNNNNNNNNNNbw114sggs61224760sgdgggggsssp044wsgggggdhhhhkMNNNNNNN",
"NNNNNNNNNNNn9144sggs412221.7sgggggsggghs4114sgggdgddddshMNNNNNNN",
"NNNNNNNNNNNnw114sggs61211116sgggggggggga4114sgggggggdddhMNNNNNNN",
"NNNNNNNNNNNbw114psfp0444446wsgggdgggfssp6114pgsssssshhhkMNNNNNNN",
"NNNNNNNNNNNbw1224467psssssssgdgdgsgs046612224444944evMMMNNNNNNNN",
"NNNNNNNNNNNbw.422214sggggggggggggggs61.2122211211219bNNNNNNNNNNN",
"NNNNNNNNNNNb9.111116sgggdgdgdgdggggs4122111122121219bNNNNNNNNNNN",
"NNNNNNNNNNNmt9wwwwwwsgggggggdggggggg0644774444449w9tbNNNNNNNNNNN",
"NNNNNNNNNNNNbbbbbbbvhsgggggdggddggggsssfssssspsfvbbnNNNNNNNNNNNN",
"NNNNNNNNNNNNNNNNNNNMhggggdddggggsggggggggggggggjMNNNNNNNNNNNNNNN",
"NNNNNNNNNNNNNNNNNNNMhgggggggggggggggggggdddggggfMNNNNNNNNNNNNNNN",
"NNNNNNNNNNNNNNNNbbmvfssssaassssspsgpgpgphhhhhhhkMNNNNNNNNNNNNNNN",
"NNNNNNNNNNNNNNNbt9ww7495;--;87647747366evMMMMMMMNNNNNNNNNNNNNNNN",
"NNNNNNNNNNNNNNNb9111111O*&&*O11111111119bNNNNNNNNNNNNNNNNNNNNNNN",
"NNNNNNNNNNNNNNNnw142232O*%%*O22222222219MNNNNNNNNNNNNNNNNNNNNNNN",
"NNNNNNNNNNNNbbmx91112223*%%*O22222223337xmbbbnbbnbnnNNNNNNNNNNNN",
"NNNNNNNNNNNbt9w92222222O@%&@3111222O=@@=qwwwwwwwww9tnNNNNNNNNNNN",
"NNNNNNNNNNNb91112222222O@&%@3232232O@%&*X211111111.9bNNNNNNNNNNN",
"NNNNNNNNNNNm914123222223@&&@31222223*-&@O2221222221wnNNNNNNNNNNN",
"NNNNNNNNnbbzw12222222223@&%@33OO3O3+*&%@O22212222219xmbbNNNNNNNN",
"NNNNNNNnt9ww22222222222X@%%%*******-&&&@O22222222222ww9tbNNNNNNN",
"NNNNNNNb9.11222122122223@%%%%%%%-&&&&%-@32222222142211.9bNNNNNNN",
"NNNNNNNn9112221122222223*&&&%%%% -- && *32222122111122.wbNNNNNNN",
"NNNNNNNbe47444943222353o;---%%%%&  ----;+3OO23116447476ebNNNNNNN",
"NNNNNNNMhpsssssp612O=*$-yasy-&%%-&&-yady;**@X216pssssssfMNNNNNNN",
"NNNNNNNMjdgggggs712O@-&-sggd- %%&&&-ahda-&-@O219sgggggghMNNNNNNN",
"NNNNNNNMhdgdgsgs6.2O@&&-ahgs-&%%&&&-ahha-&&*X116sgdgggdhMNNNNNNN",
"NNNNNNNMhdgggghs047O@&&-yady-&%%%-&-yaay-&&*5640gfgdggdhMNNNNNNN",
"NNNNNNNMhdggggddsssa-&-&----%%%%%%%%----%%&-usssggggggdhMNNNNNNN",
"NNNNNNNMhdgdddgdgdha-&&&&&&&%%%%%%&%&& &%%&-shgggggddgdhMNNNNNNN",
"NNNNNNNMhddgggdhggga, *-%%%%%%%%%%%%-%-%%%&-ahdggdgdggdhMNNNNNNN",
"NNNNNNNMhdggdgddsaay- - %%%%%%%%%%%% %&&%%&-ysaadgggdgghMNNNNNNN",
"NNNNNNNMhgggddga,*--%%%%%%%%%%%%%%%%%%%%%%%%---,uggggddhMNNNNNNN",
"NNNNNNNMhdgggggs-&%&%%%%%%%%%%%%%%%%%%%%%%%%&&&-agggggdhMNNNNNNN",
"NNNNNNNMhsdgddga-%%%%%%%%%%%&&& &&&&%%%%%%%%%%&-agggdddhMNNNNNNN",
"NNNNNNNMkhhhhhjs-&%%%%%%%%%%,,,,,,,,%%%%&%%%%%&-shhhhhhkMNNNNNNN",
"NNNNNNNNMMMMMMMc,&%%%%%%%%#,lMmcnmnl,&%%%%%%%- ,cMMMMMMMNNNNNNNN",
"NNNNNNNNNNNNNNNM,#%%%%%%%%&,MNNNNNNm,#%%%%%%%%&,MNNNNNNNNNNNNNNN",
"NNNNNNNNNNNNNNNm,&%&%%%%&&#,cNNNNMNm, &&%%&&%%&,mNNNNNNNNNNNNNNN",
"NNNNNNNNNNNNbbbc:*****@@,,,<mNNNNNNm<,,,*@@*@@$:lnbbNNNNNNNNNNNN",
"NNNNNNNNNNNbt9w93OOOOOXqlmmnNNNNNNNNmcmcqXOOOOO3ww9tbNNNNNNNNNNN",
"NNNNNNNNNNNb91112222221wmNNNNNNNNNNNNNNbw122222211.9bNMNNNNNNNNN",
"NNNNNNNNNNNmw1222221221wbNNNNNNNNNNNNNNbw1222222221wMNNNNNNNNNNN",
"NNNNNNNNnbmxw1222222221wbNNNNNNNNNNNNNNnw1222212221wxnbbNNNNNNNN",
"NNNNNNNnt9ww22222211221wbNNNNNNNNNNNNNNbw13222232222we9tnNNNNNNN",
"NNNNNNNn9.1121222241231wbNNNNNNNNNNNNNNbw1222221222211.9nNNNNNNN",
"NNNNNNNbw122222322222219nNNNNNNNNNNNNNNnw12222222222221wbNNNNNNN",
"NNNNNNNmw.2222222222221wbNNNNNNNNNNNNNNnw.2222222222221wnNNNNNNN"
};
