/* XPM */
static char *aea291d7074042368e0d72edbe3f906epK67URP8ILEc3yF8[] = {
/* columns rows colors chars-per-pixel */
"64 64 193 2 ",
"   c None",
".  c #3FA327",
"X  c #3FA427",
"o  c #40A229",
"O  c #41A329",
"+  c #41A32A",
"@  c #40A428",
"#  c #41A529",
"$  c #42A529",
"%  c #42A629",
"&  c #41A42A",
"*  c #42A42A",
"=  c #42A52A",
"-  c #43A52A",
";  c #42A52B",
":  c #43A52B",
">  c #42A62A",
",  c #43A62A",
"<  c #43A72A",
"1  c #43A62B",
"2  c #43A72B",
"3  c #44A62B",
"4  c #44A72B",
"5  c #43A62C",
"6  c #44A62C",
"7  c #44A72C",
"8  c #45A72C",
"9  c #45A72D",
"0  c #46A72D",
"q  c #45A72E",
"w  c #46A72E",
"e  c #47A72F",
"r  c #44A82B",
"t  c #45A82C",
"y  c #45A92C",
"u  c #45A82D",
"i  c #46A82D",
"p  c #46A92D",
"a  c #46A82E",
"s  c #46A92E",
"d  c #47A92E",
"f  c #47A82F",
"g  c #47A92F",
"h  c #47AA2E",
"j  c #47AA2F",
"k  c #48AA2E",
"l  c #48AA2F",
"z  c #49AB2F",
"x  c #49A733",
"c  c #48A830",
"v  c #48A930",
"b  c #49AB30",
"n  c #4AA932",
"m  c #4AA933",
"M  c #4BA933",
"N  c #4AAA32",
"B  c #4AAA33",
"V  c #4BAA33",
"C  c #4BAB33",
"Z  c #4CAB33",
"A  c #49AC30",
"S  c #4AAC31",
"D  c #4BA934",
"F  c #4BAA34",
"G  c #4DAB36",
"H  c #4EAB37",
"J  c #4CAC34",
"K  c #4FAD37",
"L  c #4FAC38",
"P  c #4FAD38",
"I  c #50AC39",
"U  c #50AD39",
"Y  c #53AE3D",
"T  c #54AE3D",
"R  c #54AD3F",
"E  c #54AE3E",
"W  c #55AE3F",
"Q  c #56B03F",
"!  c #56B13F",
"~  c #57AF41",
"^  c #57B041",
"/  c #57B141",
"(  c #58B141",
")  c #5BB245",
"_  c #5BB146",
"`  c #5CB346",
"'  c #5DB348",
"]  c #5EB349",
"[  c #60B34B",
"{  c #61B54C",
"}  c #63B64E",
"|  c #64B64F",
" . c #64B650",
".. c #68B953",
"X. c #69B855",
"o. c #6BBA57",
"O. c #6BB958",
"+. c #6CB958",
"@. c #6CBA58",
"#. c #6DBB59",
"$. c #6DBA5A",
"%. c #6DBB5A",
"&. c #6EBB5B",
"*. c #72BC60",
"=. c #76BE64",
"-. c #78C067",
";. c #7AC069",
":. c #7BC269",
">. c #7CC06B",
",. c #7CC26B",
"<. c #7DC26C",
"1. c #80C36F",
"2. c #81C370",
"3. c #83C573",
"4. c #86C775",
"5. c #87C677",
"6. c #87C678",
"7. c #88C778",
"8. c #8AC77B",
"9. c #8AC87A",
"0. c #8CC97E",
"q. c #8ECA7F",
"w. c #8FCB80",
"e. c #90CB82",
"r. c #91CB82",
"t. c #91CB83",
"y. c #92CC84",
"u. c #93CC85",
"i. c #96CE88",
"p. c #96CF88",
"a. c #97CE89",
"s. c #97CF89",
"d. c #99CF8B",
"f. c #9ACF8C",
"g. c #9CD18E",
"h. c #9CD08F",
"j. c #9ED191",
"k. c #A0D293",
"l. c #A1D395",
"z. c #A6D69A",
"x. c #A7D69C",
"c. c #AAD7A0",
"v. c #ACD8A1",
"b. c #ADD9A2",
"n. c #B0DAA6",
"m. c #B2DAA8",
"M. c #B5DCAC",
"N. c #B6DCAC",
"B. c #B8DEAF",
"V. c #B9DEB0",
"C. c #BBDFB2",
"Z. c #BCE0B3",
"A. c #C1E2B9",
"S. c #C5E4BD",
"D. c #C6E4BE",
"F. c #CAE5C3",
"G. c #CEE8C7",
"H. c #D2EACD",
"J. c #D3EACD",
"K. c #D3EBCE",
"L. c #D4EBCE",
"P. c #DAEED6",
"I. c #DBEED6",
"U. c #DCEFD7",
"Y. c #DDEFD8",
"T. c #DFF0DB",
"R. c #E0F1DC",
"E. c #E1F1DC",
"W. c #E3F2DF",
"Q. c #E3F2E0",
"!. c #E8F4E5",
"~. c #E9F5E6",
"^. c #EAF5E7",
"/. c #ECF6E9",
"(. c #EDF6EA",
"). c #F1F8EF",
"_. c #F1F9EF",
"`. c #F3FAF2",
"'. c #F4FAF2",
"]. c #F4FAF3",
"[. c #F5FAF3",
"{. c #F5FBF4",
"}. c #F6FBF5",
"|. c #F8FCF7",
" X c #FAFDF9",
".X c #FAFDFA",
"XX c #FBFDFA",
"oX c #FBFDFB",
"OX c #FCFDFB",
"+X c #FCFEFB",
"@X c #FCFEFC",
"#X c #FEFFFE",
"$X c white",
/* pixels */
"                                                                                                                                ",
"                                                                                                                                ",
"                                                                                                                                ",
"                                                                                                                                ",
"                                  k 7 7                                                                                         ",
"                                a e k 7                                                                                         ",
"                : 7             k 7 k 7                                                                                         ",
"              : : 7 7           7 7 7 a             k 7 k n                                                                     ",
"            : 7 : a 7           a 7 3 7             e e a a                                                                     ",
"            7 7 7 a 7           e 7 3 7             3 7 a a 7                                                                   ",
"            7 7 7 3 7           7 e 3 k k         7 7 7 t k n                 7 k 7 7 a a a k k a a a 7 a 7 : : a r             ",
"            k k 7 7 7 e 7 7 7 7 7 7 7 e 7 7 k 7 7 7 7 3 7 7 k                 7 7 7 7 7 k a n n a a 3 a a : : * : t 7           ",
"            k 7 7 7 7 7 3 : * 7 7 7 7 7 7 e k 7 7 7 7 7 7 7 7               3 7 e 3 7 7 k a k 7 : t a a 7 : : : 7 7 7           ",
"            7 k e e 7 7 7 7 7 7 k 7 e 7 7 7 7 7 7 k e 7 7 7 7               7 a k 3 e k 7 7 7 7 a t a : 7 7 : : 3 7 7           ",
"            k k 7 7 7 7 k 7 7 e 7 a k 3 7 7 k 7 3 e 7 7 7 7 a               a 7 7 7 k 7 e k k a a a t a 7 7 7 3 7 7 : 7         ",
"              e 7 7 3 a         7 a a e 7           e 7 7 7                 a t 7 e 7 7                     7 e : : : 7         ",
"                                7 k 7 : 7                                   7 7 7 a 7 :                     a a 3 3 * 7         ",
"                                7 7 : 7 7                                   k a 7 7 7                         a 7 : * *         ",
"                                7 7 e 7 7                                   k 7 7 7 3                         k a : . *         ",
"                                7 7 7 7 7                                   k 7 7 7 a                         7 : : : 7         ",
"                                e 7 7 3 7                                 k 7 a e 7 7                       3 7 7 7 7 7         ",
"                                3 : 7 7 7                                   e 3 3 : 3                       3 7 e k k 7         ",
"              7 7 7 k           : 3 7 7 7             a k                   7 : * 7 7 a                     a 7 7 7 a 7         ",
"            7 k a a k k         3 : t 3 e           a a n k                 7 7 7 3 7 7 a a a a 7 * : : a 3 7 3 3 e 7 7         ",
"            a e 7 7 7 7         7 3 3 3 7         7 e 7 k 7 7               7 n a : a : t a : : t : : : a a a : a 3 3 7         ",
"          7 7 7 7 7 7 7         7 e 3 3 7         7 7 7 7 7 7               3 S a t : : a : : : 3 : a t k h a : 7 7 7 7         ",
"          7 7 7 7 k n k         7 7 7 7 k         3 7 e 7 a S               7 7 : t t : t : : a 7 7 a a a a a 3 k 7 7 e         ",
"          7 7 7 k k z n e 7 7 7 7 e 7 7 7 7 7 7 a a 3 a a a a               7 7 a a a t a : : : a 7 : a : a a a 7 7 7 7         ",
"          7 7 7 7 k e 3 k 7 7 k e k a a 3 3 7 k 3 a 7 3 : : : a             a a a a a a                     a k a a a a         ",
"          e 7 7 7 7 7 7 e 7 7 7 a n a t 7 3 k 3 3 7 a 3 t a a a             a a a n a                         k k a a a         ",
"            3 7 7 3 t 7 3 3 7 k k a k a a 3 a 7 a t 3 a a k S               t k k k k                         a a t a           ",
"            * 3 x a 7 7 7 k 7 e a a a a a a a t a : t 7 a k S                 7 a a 7                         3 t a 7           ",
"              7 7 7 7                               r a h                       k 7 7                                           ",
"                                                                                                                                ",
"                                                                                                                                ",
"                                                                                                                                ",
"                                                                                                                                ",
"                                                                                                                                ",
"                                                                                                                                ",
"                                                                                                                                ",
"                                                                                                                                ",
"                                                                                                                                ",
"                                                                                                                                ",
"                                                                                                                                ",
"                                        a a a t a n z a a k a 7 7 k n k a z a a a : 7                                           ",
"        k e 7 3 3 : 7 7 7 t a a a a 3 : 3 t : a k n a a a a a 7 7 k k a t t a a a t r r a a t a 7 e k 7 e e 7 7 7 7 7 7 7       ",
"      n k e 7 7 7 7 7 7 7 7 t a a 3 ` r.z.s.#.a 7 a K Z a Z ~ 7 7 a k &.-.o.a a a n / ' / U a a a e k 7 : 7 7 7 7 7 7 7 7       ",
"    7 7 k e 7 7 7 : 7 7 7 7 3 a a a n.#X}.).B.J : J V.b.J y.G.E 3 3 E J. XS.U : ! Z.W.~.R.J.@.3 a e 7 7 7 : 7 3 7 7 7 7 : 7     ",
"    7 7 t a a a t t : : 3 7 a 7 : ! W.).,.[ E 7 * x N.#XN./.I.Y : : a e. X7.r t L f.U.#X~.n.} r 3 a a a : : 7 : : 7 : a : :     ",
"    7 7 a t a : : t a 7 a : 3 a @ &.'.`.x.8.Y : 7 3 X.!.#XXXu.7 r t : 5. X<.: a 7 X w.#Xn.: : t 3 a a a a 7 : a : : 7 7 a :     ",
"    e k a : : : 3 a a : : a a a : *.|.+X/.E.<.: : : x F.#XU.E 3 : t @ 0.#Xq.: t 7 * r.#Xx.: : : 3 a t a : : : : : : a 7 : t     ",
"    7 7 t a t a 7 : : * : 3 3 3 3 *.|.U.| ! n 3 * . =.`.#X}.=.3 a : : 5.#Xs.: 3 3 * 9.#Xl.: : : 3 3 3 t r r : : : a : : : a     ",
"    7 e k n k a 7 7 : 3 : : a 7 : :.+X/.g.5.&.7 : 7 C.}.N.'.J.E r a : 1. Xi.3 7 a r -. Xk.: a : : 3 : : : a a 7 r a : : a a     ",
"    7 7 k 7 k a e 7 3 7 t 3 a a t { U.'.'./.j.a 7 J b.f.n d.D._ : : K A.#XH.` a a : ..T.,.r : : : : a : a a a : : a 3 3 a       ",
"    7 k 7 k n a e 7 7 7 7 7 t 7 a a ` &.@.} J 7 a 7 J x 7 7 D 7 : : n 3.i.9.K t t t n | n a : : * : : : a 7 r : : a a a 7       ",
"      7 7 7 a a 3 k 3 e 7 7 7 3 a a : r : 3 7 7 7 7 7 7 k 7 : 7 a a a : : : 3 3 a a a t : a : : : : : : r : : : 3 3 a a         ",
"                                a a t 7 7 7 : 7 : a 7 : a                                             a 7 : : 3                 ",
"                                                                                                                                ",
"                                                                                                                                ",
"                                                                                                                                ",
"                                                                                                                                ",
"                                                                                                                                ",
"                                                                                                                                ",
"                                                                                                                                "
};
